<svg width="52" height="88" viewBox="0 0 52 88" fill="none" xmlns="http://www.w3.org/2000/svg">
<rect x="0.5" y="0.5" width="51" height="87" rx="4.5" stroke="#9747FF" stroke-dasharray="10 5"/>
<path d="M33.3667 19.8417C32.941 19.4158 32.4357 19.078 31.8795 18.8476C31.3232 18.6171 30.7271 18.4985 30.125 18.4985C29.5229 18.4985 28.9268 18.6171 28.3705 18.8476C27.8143 19.078 27.309 19.4158 26.8833 19.8417L26 20.725L25.1167 19.8417C24.2569 18.9819 23.0909 18.4989 21.875 18.4989C20.6591 18.4989 19.4931 18.9819 18.6333 19.8417C17.7736 20.7014 17.2906 21.8675 17.2906 23.0833C17.2906 24.2992 17.7736 25.4653 18.6333 26.325L19.5167 27.2083L26 33.6917L32.4833 27.2083L33.3667 26.325C33.7925 25.8994 34.1303 25.394 34.3608 24.8378C34.5912 24.2816 34.7099 23.6854 34.7099 23.0833C34.7099 22.4813 34.5912 21.8851 34.3608 21.3289C34.1303 20.7727 33.7925 20.2673 33.3667 19.8417Z" stroke="black" stroke-linecap="round" stroke-linejoin="round"/>
<path d="M33.3667 55.8417C32.941 55.4158 32.4357 55.078 31.8795 54.8476C31.3232 54.6171 30.7271 54.4985 30.125 54.4985C29.5229 54.4985 28.9268 54.6171 28.3705 54.8476C27.8143 55.078 27.309 55.4158 26.8833 55.8417L26 56.725L25.1167 55.8417C24.2569 54.9819 23.0909 54.4989 21.875 54.4989C20.6591 54.4989 19.4931 54.9819 18.6333 55.8417C17.7736 56.7014 17.2906 57.8675 17.2906 59.0833C17.2906 60.2992 17.7736 61.4653 18.6333 62.325L19.5167 63.2083L26 69.6917L32.4833 63.2083L33.3667 62.325C33.7925 61.8994 34.1303 61.394 34.3608 60.8378C34.5912 60.2816 34.7099 59.6854 34.7099 59.0833C34.7099 58.4813 34.5912 57.8851 34.3608 57.3289C34.1303 56.7727 33.7925 56.2673 33.3667 55.8417Z" stroke="black" stroke-width="2" stroke-linecap="round" stroke-linejoin="round"/>
</svg>
