<svg width="52" height="88" viewBox="0 0 52 88" fill="none" xmlns="http://www.w3.org/2000/svg">
<rect x="0.5" y="0.5" width="51" height="87" rx="4.5" stroke="#9747FF" stroke-dasharray="10 5"/>
<path d="M22.6667 18.5H20.1667C19.7246 18.5 19.3007 18.6756 18.9882 18.9882C18.6756 19.3007 18.5 19.7246 18.5 20.1667V22.6667M33.5 22.6667V20.1667C33.5 19.7246 33.3244 19.3007 33.0118 18.9882C32.6993 18.6756 32.2754 18.5 31.8333 18.5H29.3333M29.3333 33.5H31.8333C32.2754 33.5 32.6993 33.3244 33.0118 33.0118C33.3244 32.6993 33.5 32.2754 33.5 31.8333V29.3333M18.5 29.3333V31.8333C18.5 32.2754 18.6756 32.6993 18.9882 33.0118C19.3007 33.3244 19.7246 33.5 20.1667 33.5H22.6667" stroke="black" stroke-linecap="round" stroke-linejoin="round"/>
<path d="M18.5 26H33.5004" stroke="black" stroke-linecap="round"/>
<path d="M22.6667 54.5H20.1667C19.7246 54.5 19.3007 54.6756 18.9882 54.9882C18.6756 55.3007 18.5 55.7246 18.5 56.1667V58.6667M33.5 58.6667V56.1667C33.5 55.7246 33.3244 55.3007 33.0118 54.9882C32.6993 54.6756 32.2754 54.5 31.8333 54.5H29.3333M29.3333 69.5H31.8333C32.2754 69.5 32.6993 69.3244 33.0118 69.0118C33.3244 68.6993 33.5 68.2754 33.5 67.8333V65.3333M18.5 65.3333V67.8333C18.5 68.2754 18.6756 68.6993 18.9882 69.0118C19.3007 69.3244 19.7246 69.5 20.1667 69.5H22.6667" stroke="black" stroke-width="2" stroke-linecap="round" stroke-linejoin="round"/>
<path d="M18.5 62H33.5004" stroke="black" stroke-width="2" stroke-linecap="round"/>
</svg>
